<?xml version="1.0" encoding="utf-8"?>
<!-- Generator: Adobe Illustrator 25.3.1, SVG Export Plug-In . SVG Version: 6.00 Build 0)  -->
<svg version="1.1" id="图层_1" xmlns="http://www.w3.org/2000/svg" xmlns:xlink="http://www.w3.org/1999/xlink" x="0px" y="0px"
	 viewBox="0 0 16 16" width="20" height="20" xml:space="preserve">
<path d="M4.1,2.8h7.9c0.7,0,1.3,0.6,1.3,1.3v7.9c0,0.7-0.6,1.3-1.3,1.3H4.1c-0.7,0-1.3-0.6-1.3-1.3V4.1C2.7,3.3,3.3,2.8,4.1,2.8z
	 M3.9,4.1v7.9c0,0.1,0.1,0.2,0.2,0.2h7.9c0.1,0,0.2-0.1,0.2-0.2V4.1c0-0.1-0.1-0.2-0.2-0.2H4.1C4,3.9,3.9,4,3.9,4.1z M10.8,6.7
	l-3.4,3.4c-0.2,0.2-0.6,0.2-0.8,0L5.2,8.6C5,8.4,5,8,5.2,7.8c0.2-0.2,0.6-0.2,0.8,0l1.1,1.1l3-3c0.2-0.2,0.6-0.2,0.8,0
	C11,6.1,11,6.5,10.8,6.7z"/>
</svg>
