<?xml version="1.0" encoding="utf-8"?>
<!-- Generator: Adobe Illustrator 25.3.1, SVG Export Plug-In . SVG Version: 6.00 Build 0)  -->
<svg version="1.1" id="图层_1" xmlns="http://www.w3.org/2000/svg" xmlns:xlink="http://www.w3.org/1999/xlink" x="0px" y="0px"
	 width="20px" height="20px" viewBox="0 0 20 20" style="enable-background:new 0 0 20 20;" xml:space="preserve">
<path d="M5.1,3.5H15c0.9,0,1.6,0.8,1.6,1.6V15c0,0.9-0.8,1.6-1.6,1.6H5.1c-0.9,0-1.6-0.8-1.6-1.6V5.1C3.4,4.1,4.1,3.5,5.1,3.5z
	 M4.9,5.1V15c0,0.1,0.1,0.2,0.2,0.2H15c0.1,0,0.2-0.1,0.2-0.2V5.1c0-0.1-0.1-0.2-0.2-0.2H5.1C5,4.9,4.9,5,4.9,5.1z"/>
</svg>
